# xmcd CD database file
#
# Track frame offsets:
#	150
#	4810
#	12862
#	17257
#	20102
#	29652
#	33579
#	36659
#	49507
#	56302
#	61859
#	77463
#	87973
#	95375
#	116243
#	122665
#	127048
#	147278
#	155459
#	160407
#	176959
#	186327
#	192942
#	217290
#	228667
#	234665
#	248945
#	253273
#	257845
#	272399
#	278671
#	282307
#	298290
#	305038
#	308384
#	323586
#	335853
#	342866
#
# Disc length: 4797 seconds
#
# Revision: 0
# Processed by: cddbd v1.5.2PL0 Copyright (c) Steve Scherf et al.
# Submitted via: CDex 1.51
#
DISCID=3a12bb26
DTITLE=Dix Bruce - Gypsy Swing and Hot Club Rhythm II
DYEAR=2008
DGENRE=Jazz
TTITLE0=Tuning
TTITLE1=Swing Mandolin Rhythm
TTITLE2=Limehouse Blues Slow
TTITLE3=Limehouse Blues Up to Speed
TTITLE4=Limehouse Blues
TTITLE5=China Town, My China Town Slow
TTITLE6=China Town, My China Town Up to Speed
TTITLE7=China Town, My China Town
TTITLE8=St James Infirmary Slow
TTITLE9=St James Infirmary Up to Speed
TTITLE10=St James Infirmary
TTITLE11=Clouds and Shadows Slow
TTITLE12=Clouds and Shadows Up to Speed
TTITLE13=Clouds and Shadows
TTITLE14=Margie Slow
TTITLE15=Margie Up to Speed
TTITLE16=Margie
TTITLE17=Whispering Slow
TTITLE18=Whispering Up to Speed
TTITLE19=Whispering
TTITLE20=El Choclo Slow
TTITLE21=El Choclo Up to Speed
TTITLE22=El Choclo
TTITLE23=Indiana Slow
TTITLE24=Indiana Up to Speed
TTITLE25=Indiana
TTITLE26=Django's Djazz Blues Slow
TTITLE27=Django's Djazz Blues Up to Speed
TTITLE28=Django's Djazz Blues
TTITLE29=Redwing Swing Slow
TTITLE30=Redwing Swing Up to Speed
TTITLE31=Redwing Swing
TTITLE32=Stunbling Slow
TTITLE33=Stunbling Up to Speed
TTITLE34=Stunbling
TTITLE35=Tiger Rag Slow
TTITLE36=Tiger Rag Up to Speed
TTITLE37=Tiger Rag
EXTD=YEAR: 2008
EXTT0=
EXTT1=
EXTT2=
EXTT3=
EXTT4=
EXTT5=
EXTT6=
EXTT7=
EXTT8=
EXTT9=
EXTT10=
EXTT11=
EXTT12=
EXTT13=
EXTT14=
EXTT15=
EXTT16=
EXTT17=
EXTT18=
EXTT19=
EXTT20=
EXTT21=
EXTT22=
EXTT23=
EXTT24=
EXTT25=
EXTT26=
EXTT27=
EXTT28=
EXTT29=
EXTT30=
EXTT31=
EXTT32=
EXTT33=
EXTT34=
EXTT35=
EXTT36=
EXTT37=
PLAYORDER=
